#!OML:ASF H:\Terrain\Patient Classification 1\Walking\liu\liu.ASF
:FULLY-SPECIFIED
:DEGREES
129
root 8.19421 16.443 -16.4203 7.25444 2.90812 -2.17481
lowerback -3.90635 -1.86687 -0.471119
upperback -1.44293 -2.50678 3.27479
thorax 0.873772 -1.2505 3.51478
lowerneck -22.6612 -4.44074 -12.8615
upperneck 21.3761 -4.93932 12.1373
head 11.3428 -1.80842 5.86382
rclavicle -1.32192e-014 -1.27222e-014
rhumerus -43.3968 10.0404 -85.8641
rradius 33.737
rwrist -23.4701
rhand -26.0537 -33.5163
rfingers 7.12502
rthumb 0.493902 -63.4955
lclavicle -1.32192e-014 -1.27222e-014
lhumerus -29.2947 -13.2492 93.438
lradius 33.4173
lwrist 9.02401
lhand -9.81675 -22.4708
lfingers 7.12502
lthumb 16.1601 6.87557
rfemur -24.2894 1.5017 28.2107
rtibia 34.9343
rfoot -14.3887 6.274
rtoes -4.42977
lfemur -16.2962 9.94247 -16.3659
ltibia 68.0704
lfoot -3.14591 13.1972
ltoes -0.24479
130
root 8.19443 16.4699 -16.2575 7.29718 2.79008 -2.22057
lowerback -3.87488 -1.70228 -0.37478
upperback -1.52918 -2.28699 3.20333
thorax 0.746623 -1.13858 3.40009
lowerneck -22.0785 -4.55482 -13.0748
upperneck 21.1609 -5.14102 12.3501
head 11.1952 -1.90776 5.93707
rclavicle -9.59136e-015 1.11319e-014
rhumerus -42.9115 10.3217 -85.9783
rradius 34.3443
rwrist -22.8854
rhand -26.6076 -29.7889
rfingers 7.12502
rthumb -0.0410878 -59.7686
lclavicle -9.59136e-015 1.11319e-014
lhumerus -29.9692 -12.5241 93.2342
lradius 33.1783
lwrist 10.4618
lhand -6.61322 -21.1038
lfingers 7.12502
lthumb 19.2428 7.96423
rfemur -23.2836 1.63559 28.3018
rtibia 34.1703
rfoot -14.5183 6.20608
rtoes -5.3448
lfemur -18.0476 9.86783 -16.5502
ltibia 68.7672
lfoot -4.45258 12.6784
ltoes -1.49801
131
root 8.19728 16.5046 -16.0983 7.20358 2.75773 -2.41938
lowerback -3.78509 -1.57666 -0.0705161
upperback -1.4003 -2.13222 3.21088
thorax 0.80848 -1.06289 3.24425
lowerneck -22.2147 -4.66409 -13.2056
upperneck 20.9976 -5.23038 12.3948
head 11.1798 -1.94859 5.95581
rclavicle 1.26725e-014 -1.19271e-014
rhumerus -42.0372 10.8909 -86.1047
rradius 34.8901
rwrist -23.0237
rhand -28.6237 -25.5125
rfingers 7.12502
rthumb -1.98831 -55.483
lclavicle 1.26725e-014 -1.19271e-014
lhumerus -30.452 -12.4398 93.3945
lradius 32.079
lwrist 9.94029
lhand -7.63857 -21.928
lfingers 7.12502
lthumb 18.2566 7.23522
rfemur -22.1774 1.62246 28.5538
rtibia 33.4548
rfoot -14.3483 6.26609
rtoes -5.5552
lfemur -19.6601 9.66822 -16.5823
ltibia 69.2665
lfoot -5.51067 12.2457
ltoes -3.3923
132
root 8.20001 16.5339 -15.9439 7.24805 2.48024 -2.45064
lowerback -3.69839 -1.41414 -0.10013
upperback -1.3947 -1.91349 3.25563
thorax 0.755623 -0.952995 3.31968
lowerneck -22.4076 -4.67152 -13.2419
upperneck 21.0043 -5.1863 12.3338
head 11.2112 -1.93305 5.94695
rclavicle -1.59028e-014 3.65764e-014
rhumerus -41.4437 11.8358 -86.36
rradius 35.6619
rwrist -23.9985
rhand -30.1006 -22.3102
rfingers 7.12502
rthumb -3.41462 -52.2626
lclavicle -1.59028e-014 3.65764e-014
lhumerus -31.5125 -13.1343 94.1092
lradius 30.2683
lwrist 6.7247
lhand -13.3325 -25.4062
lfingers 7.12502
lthumb 12.7727 4.18309
rfemur -21.2998 1.74709 28.5985
rtibia 32.8579
rfoot -14.2262 6.36899
rtoes -6.33552
lfemur -21.4273 9.67655 -16.8605
ltibia 69.5649
lfoot -6.89803 12.3671
ltoes -5.15424
133
root 8.20446 16.5549 -15.7866 7.44856 2.01019 -2.40532
lowerback -3.77816 -1.21873 -0.225049
upperback -1.45764 -1.64779 3.23387
thorax 0.722714 -0.819015 3.37893
lowerneck -22.4913 -4.70483 -13.268
upperneck 21.1606 -5.23451 12.3633
head 11.2946 -1.95228 5.96233
rclavicle 3.3048e-015 -3.4191e-014
rhumerus -40.8737 12.5549 -86.5221
rradius 36.3871
rwrist -24.3224
rhand -30.2196 -22.0252
rfingers 7.12502
rthumb -3.52954 -51.9757
lclavicle 3.3048e-015 -3.4191e-014
lhumerus -32.385 -12.377 93.9451
lradius 29.7565
lwrist 5.92679
lhand -12.9932 -25.5815
lfingers 7.12502
lthumb 13.0997 3.98707
rfemur -20.6823 2.04457 28.531
rtibia 32.4838
rfoot -14.5016 6.21345
rtoes -7.56049
lfemur -23.2288 9.91285 -17.2719
ltibia 69.6272
lfoot -9.37109 12.4824
ltoes -11.5785
134
root 8.21082 16.5751 -15.6249 7.55548 1.65046 -2.47157
lowerback -3.84651 -1.02086 -0.103491
upperback -1.45893 -1.38818 3.14714
thorax 0.738844 -0.689338 3.23128
lowerneck -22.5983 -4.78169 -13.1612
upperneck 21.4022 -5.36762 12.2861
head 11.4203 -2.01148 5.90237
rclavicle 2.18912e-014 -2.54444e-014
rhumerus -40.1452 13.0695 -86.7563
rradius 36.9853
rwrist -24.089
rhand -30.7186 -22.4695
rfingers 7.12502
rthumb -4.01141 -52.4115
lclavicle 2.18912e-014 -2.54444e-014
lhumerus -33.3034 -11.3907 93.5954
lradius 29.3949
lwrist 4.77613
lhand -12.536 -25.4372
lfingers 7.12502
lthumb 13.5404 4.1025
rfemur -20.0735 2.29558 28.5776
rtibia 32.3315
rfoot -15.0416 6.03616
rtoes -7.49575
lfemur -24.7582 10.0566 -17.5485
ltibia 69.34
lfoot -8.84171 12.5054
ltoes -9.40895
135
root 8.2219 16.5994 -15.4396 7.37878 1.25981 -1.95164
lowerback -3.83881 -0.835932 -0.55212
upperback -1.41351 -1.12404 2.94196
thorax 0.7704 -0.557284 3.28414
lowerneck -22.199 -4.75589 -13.1307
upperneck 21.1739 -5.35609 12.2185
head 11.2535 -2.02182 5.86053
rclavicle 4.84538e-015 -2.90226e-014
rhumerus -39.5181 13.261 -86.6755
rradius 37.858
rwrist -23.3676
rhand -30.2389 -25.0772
rfingers 7.12502
rthumb -3.5482 -55.0274
lclavicle 4.84538e-015 -2.90226e-014
lhumerus -34.3317 -10.9472 93.6356
lradius 28.8972
lwrist 4.1288
lhand -12.7287 -25.2684
lfingers 7.12502
lthumb 13.3548 4.28367
rfemur -19.0211 2.07679 27.9665
rtibia 32.1245
rfoot -15.3895 6.57068
rtoes -6.474
lfemur -25.6845 9.96062 -18.4766
ltibia 68.8371
lfoot -9.16761 12.6176
ltoes -8.4083
